<?xml version="1.0" standalone="no"?>
<!DOCTYPE svg PUBLIC "-//W3C//DTD SVG 20010904//EN"
 "http://www.w3.org/TR/2001/REC-SVG-20010904/DTD/svg10.dtd">
<svg version="1.0" xmlns="http://www.w3.org/2000/svg"
 width="700.000000pt" height="700.000000pt" viewBox="0 0 700.000000 700.000000"
 preserveAspectRatio="xMidYMid meet">
<metadata>
Created by potrace 1.14, written by Peter Selinger 2001-2017
</metadata>
<g transform="translate(0.000000,700.000000) scale(0.100000,-0.100000)"
fill="#000000" stroke="none">
<path d="M1525 6984 c-204 -27 -380 -81 -559 -170 -535 -268 -889 -778 -956
-1379 -13 -123 -13 -3747 0 -3870 15 -134 38 -236 81 -369 184 -562 651 -996
1229 -1141 222 -56 174 -55 2176 -55 1240 0 1877 3 1942 11 456 50 863 268
1156 619 224 269 360 593 396 950 8 72 10 693 8 1990 l-3 1885 -23 113 c-154
773 -762 1337 -1534 1421 -156 17 -3783 13 -3913 -5z m261 -1103 c90 -55 52
-201 -52 -201 -70 0 -113 41 -114 109 0 36 6 49 34 77 40 40 83 45 132 15z
m3150 -15 c26 -26 34 -42 34 -70 0 -73 -47 -121 -114 -119 -66 2 -109 46 -109
112 0 67 46 110 117 111 30 0 45 -7 72 -34z m-2449 -424 c66 -34 109 -78 143
-144 56 -114 35 -258 -52 -347 -45 -46 -127 -91 -165 -91 -13 0 -23 -4 -23
-10 0 -5 10 -10 23 -10 38 0 120 -45 165 -91 39 -40 80 -123 83 -167 1 -9 7 1
14 24 33 104 95 177 184 217 71 32 179 30 252 -6 224 -109 240 -418 29 -545
-30 -18 -72 -35 -94 -39 l-39 -6 57 -18 c138 -42 226 -159 226 -299 0 -138
-86 -251 -225 -298 -33 -12 -51 -21 -39 -21 41 -2 113 -33 152 -67 48 -41 80
-90 103 -159 13 -36 18 -43 18 -25 1 14 12 48 25 76 59 128 204 202 339 174
115 -23 208 -108 240 -217 l13 -46 22 60 c12 33 40 81 62 106 42 48 127 97
169 98 l26 0 -25 11 c-14 6 -43 18 -65 27 -55 22 -122 85 -153 146 -23 43 -27
62 -27 135 0 73 4 92 27 135 49 90 104 137 194 165 l57 17 -38 7 c-88 17 -172
84 -215 171 -37 75 -35 189 3 267 32 65 90 121 156 151 66 30 178 29 249 -2
74 -33 147 -115 169 -191 l18 -58 17 58 c24 77 97 158 170 191 118 51 269 20
353 -72 40 -45 74 -111 75 -146 0 -38 17 -34 24 5 15 95 110 197 206 223 55
15 74 29 39 29 -38 0 -144 57 -175 93 -139 165 -87 405 107 492 55 24 71 27
138 23 165 -10 278 -121 289 -284 6 -95 -15 -157 -76 -225 -47 -52 -126 -99
-169 -99 -13 0 -23 -4 -23 -10 0 -5 10 -10 23 -10 38 0 120 -45 165 -91 111
-113 110 -309 -1 -428 -36 -37 -138 -91 -177 -92 -16 0 -5 -7 32 -18 31 -10
72 -28 92 -40 127 -79 175 -260 105 -400 -38 -76 -106 -134 -187 -158 l-57
-17 38 -8 c61 -13 111 -44 160 -98 105 -117 106 -292 1 -409 -49 -54 -130
-101 -178 -102 -25 0 -17 -5 35 -22 138 -46 221 -158 221 -296 0 -149 -106
-280 -246 -307 l-40 -7 54 -14 c222 -57 306 -319 160 -503 -31 -39 -136 -100
-172 -100 -33 0 -19 -16 25 -27 89 -25 171 -100 203 -190 18 -53 17 -160 -3
-219 -23 -67 -110 -154 -177 -177 -158 -54 -325 15 -395 163 -33 72 -35 182
-4 250 42 91 151 180 220 180 13 0 23 5 23 10 0 6 -10 10 -22 10 -36 1 -102
34 -147 75 -126 115 -129 328 -5 449 46 44 82 65 144 81 l45 12 -35 8 c-94 21
-182 93 -223 184 -29 64 -29 178 0 242 40 89 113 151 217 184 33 10 36 13 16
14 -35 2 -105 35 -150 71 -40 32 -100 136 -100 174 0 29 -15 8 -29 -41 -19
-69 -81 -137 -157 -174 -131 -65 -270 -37 -369 73 -31 35 -51 69 -63 108 l-17
58 -17 -58 c-33 -108 -143 -199 -259 -215 -57 -8 -153 15 -207 49 -52 32 -98
90 -118 146 -9 25 -19 52 -22 60 -4 11 -6 10 -9 -5 -22 -110 -101 -197 -214
-235 l-50 -17 59 -22 c77 -28 144 -87 179 -159 37 -76 39 -181 4 -260 -30 -66
-113 -144 -177 -166 -60 -20 -157 -21 -217 0 -56 19 -129 81 -162 139 -100
169 -7 395 184 452 l56 17 -38 8 c-54 11 -111 43 -153 85 -39 39 -83 123 -85
163 -1 20 -4 17 -14 -16 -33 -104 -95 -177 -184 -217 -64 -29 -178 -29 -242 0
-89 40 -151 113 -184 217 -10 33 -13 36 -14 16 -5 -98 -125 -224 -238 -248
l-38 -8 57 -17 c168 -50 261 -233 204 -404 -31 -93 -126 -177 -226 -198 l-34
-8 63 -19 c85 -26 169 -106 196 -188 58 -173 -33 -358 -199 -402 -46 -12 -62
-28 -28 -28 11 0 46 -14 80 -31 137 -68 198 -226 147 -380 -25 -74 -110 -159
-183 -183 -72 -24 -180 -19 -243 12 -171 83 -227 299 -119 457 44 65 137 125
191 125 11 0 19 5 19 10 0 6 -10 10 -22 10 -91 1 -212 120 -238 234 -5 20 -9
26 -12 16 -3 -8 -13 -36 -22 -62 -23 -64 -86 -132 -154 -165 -76 -37 -181 -39
-260 -4 -69 31 -145 113 -167 182 -35 105 -9 228 66 313 34 40 139 96 178 96
17 0 2 9 -40 23 -81 28 -132 65 -170 125 -37 58 -49 101 -49 173 0 142 81 249
226 298 32 11 50 20 38 20 -88 3 -195 85 -239 182 -24 55 -27 71 -23 138 6 94
37 161 103 219 44 39 115 71 159 73 12 0 -6 9 -39 21 -144 48 -225 156 -225
299 0 143 96 267 233 300 l52 12 -47 13 c-95 24 -163 79 -211 168 -18 33 -22
57 -22 131 0 78 4 97 27 141 56 106 156 168 275 168 62 0 80 -4 139 -34 76
-39 133 -103 154 -173 7 -23 15 -49 17 -57 3 -8 10 6 17 31 16 62 59 133 99
163 42 32 116 65 145 66 12 0 22 5 22 10 0 6 -11 10 -23 10 -36 0 -143 57
-173 93 -149 176 -74 436 146 508 46 15 171 4 217 -19z m2494 -107 c24 -15 47
-44 64 -80 24 -47 27 -64 22 -111 -18 -179 -229 -256 -357 -131 -43 42 -60 84
-60 152 0 171 186 266 331 170z m-3178 26 c70 -27 136 -120 137 -192 1 -180
-213 -284 -346 -167 -56 49 -77 100 -72 174 5 78 41 136 107 171 47 25 128 31
174 14z m-623 -123 c60 -59 27 -168 -56 -184 -105 -20 -174 100 -104 180 47
53 110 54 160 4z m3118 16 c63 -41 62 -146 -1 -184 -51 -32 -103 -26 -143 14
-98 98 27 247 144 170z m-3115 -644 c53 -60 34 -146 -41 -177 -124 -52 -214
126 -100 198 47 29 104 20 141 -21z m2513 -506 c18 -9 49 -33 68 -54 123 -136
26 -350 -159 -350 -116 0 -215 98 -215 212 0 71 51 152 120 188 44 24 139 26
186 4z m-2523 -104 c57 -45 53 -144 -6 -180 -18 -11 -49 -20 -70 -20 -78 0
-132 92 -96 163 30 59 120 78 172 37z m3 -631 c50 -47 51 -114 2 -166 -43 -46
-127 -38 -168 15 -22 27 -27 91 -9 123 31 59 126 74 175 28z m3773 -518 c116
-60 154 -196 85 -308 -110 -177 -389 -93 -388 117 1 89 53 167 134 199 43 17
128 13 169 -8z m-651 -98 c60 -37 66 -131 11 -177 -39 -34 -70 -41 -112 -27
-84 28 -108 128 -46 190 42 42 94 47 147 14z m-3127 -4 c40 -28 56 -84 36
-131 -19 -46 -56 -71 -106 -70 -70 1 -111 45 -111 118 0 54 53 104 110 104 26
0 53 -8 71 -21z m1882 0 c37 -28 52 -88 33 -133 -40 -95 -173 -94 -213 2 -19
46 -5 101 34 131 35 29 111 29 146 0z m1910 -531 c116 -64 142 -224 54 -325
-144 -164 -417 -23 -367 189 33 137 189 204 313 136z m-3795 -94 c65 -43 59
-154 -10 -190 -49 -25 -96 -18 -134 20 -98 98 27 247 144 170z m3143 -10 c73
-70 27 -194 -72 -194 -76 0 -119 41 -119 115 0 47 14 71 53 96 43 27 99 20
138 -17z m-2496 -523 c79 -35 121 -112 113 -207 -14 -169 -221 -241 -343 -120
-104 104 -71 271 65 330 47 21 117 19 165 -3z"/>
<path d="M2661 4494 c-2 -44 -34 -115 -74 -160 -43 -49 -140 -103 -187 -105
-17 0 -10 -5 22 -14 63 -17 129 -57 163 -97 35 -41 75 -125 76 -158 0 -16 8
-1 22 40 38 111 103 175 213 209 l57 18 -39 6 c-55 9 -142 64 -181 115 -18 24
-41 71 -52 105 -11 34 -20 53 -20 41z"/>
<path d="M4536 4475 c-10 -51 -38 -105 -78 -151 -35 -40 -137 -94 -178 -95
-15 0 -1 -8 37 -20 111 -35 187 -114 218 -225 9 -33 14 -41 14 -24 2 34 42
117 76 158 34 40 100 80 163 97 32 9 39 14 22 14 -38 2 -131 48 -168 84 -39
37 -79 110 -90 164 l-8 38 -8 -40z"/>
<path d="M2037 4490 c-31 -90 -42 -113 -65 -143 -38 -49 -108 -94 -171 -110
l-55 -14 39 -7 c98 -19 197 -101 230 -192 9 -27 20 -56 22 -64 4 -9 9 1 14 23
25 110 125 207 239 232 l34 8 -61 18 c-102 32 -189 124 -212 226 -5 23 -10 32
-14 23z"/>
<path d="M5167 4494 c-4 -4 -7 -14 -7 -23 0 -31 -48 -118 -84 -154 -42 -43
-84 -66 -145 -82 l-44 -11 62 -17 c51 -14 72 -27 120 -75 41 -39 64 -72 76
-107 9 -27 20 -57 22 -65 4 -9 9 1 14 23 25 110 125 207 239 232 l34 8 -61 18
c-102 32 -190 126 -211 225 -4 19 -11 32 -15 28z"/>
<path d="M2657 3845 c-9 -56 -64 -143 -115 -182 -24 -18 -69 -40 -100 -50
l-57 -17 38 -8 c55 -12 96 -35 145 -82 49 -47 70 -81 87 -146 l12 -45 8 35
c27 120 148 237 250 240 25 1 19 5 -30 22 -110 37 -183 110 -214 216 l-17 57
-7 -40z"/>
<path d="M4531 3832 c-26 -105 -107 -189 -211 -219 l-55 -16 46 -11 c98 -25
187 -110 217 -207 l17 -57 17 58 c29 98 125 187 225 208 l38 8 -56 17 c-105
31 -185 116 -213 223 l-12 46 -13 -50z"/>
<path d="M2037 3860 c-3 -8 -11 -32 -17 -52 -26 -86 -113 -167 -209 -195 l-56
-16 46 -11 c103 -27 191 -108 219 -201 7 -22 15 -47 17 -55 3 -8 10 6 17 31
31 116 119 203 233 227 l38 8 -57 17 c-102 31 -188 116 -213 214 -7 27 -15 41
-18 33z"/>
<path d="M5167 3860 c-49 -150 -109 -213 -241 -255 -34 -11 -36 -13 -15 -14
14 -1 54 -15 88 -32 72 -36 134 -106 152 -172 18 -61 24 -63 38 -10 25 98 113
181 220 209 l46 11 -57 17 c-102 29 -188 115 -213 213 -7 26 -15 41 -18 33z"/>
<path d="M2030 3221 c0 -27 -24 -80 -59 -128 -34 -48 -104 -92 -170 -109 l-46
-11 56 -16 c99 -29 185 -111 211 -201 16 -58 24 -63 32 -18 14 89 111 188 214
219 l57 17 -41 8 c-102 21 -200 114 -227 215 -11 44 -27 58 -27 24z"/>
<path d="M2037 2610 c-2 -8 -13 -37 -22 -65 -12 -35 -35 -68 -76 -107 -47 -47
-69 -61 -119 -75 l-61 -17 56 -17 c64 -20 122 -57 152 -97 31 -42 63 -109 63
-131 0 -11 5 -23 10 -26 6 -3 10 4 10 17 0 37 44 120 86 161 45 45 94 72 149
83 l38 7 -60 18 c-102 32 -189 124 -212 226 -5 23 -10 32 -14 23z"/>
</g>
</svg>
