<svg width="150" height="28" viewBox="0 0 150 28" fill="none" xmlns="http://www.w3.org/2000/svg">
<g clip-path="url(#clip0_1585_528)">
<path d="M23.7864 23.0915C24.7004 23.0915 25.4414 22.3511 25.4414 21.4377C25.4414 20.5244 24.7004 19.7839 23.7864 19.7839C22.8724 19.7839 22.1315 20.5244 22.1315 21.4377C22.1315 22.3511 22.8724 23.0915 23.7864 23.0915Z" fill="white"/>
<path d="M21.282 5.70543C21.7262 5.26145 21.7262 4.54161 21.282 4.09764C20.8377 3.65365 20.1175 3.65365 19.6731 4.09763C19.2289 4.54161 19.2289 5.26145 19.6731 5.70543C20.1175 6.14942 20.8377 6.14941 21.282 5.70543Z" fill="white"/>
<path d="M23.7864 26.399C24.7004 26.399 25.4414 25.6585 25.4414 24.7451C25.4414 23.8318 24.7004 23.0913 23.7864 23.0913C22.8724 23.0913 22.1315 23.8318 22.1315 24.7451C22.1315 25.6585 22.8724 26.399 23.7864 26.399Z" fill="white"/>
<path d="M20.4771 20.301C20.2522 20.301 20.0323 20.3677 19.8453 20.4926C19.6583 20.6174 19.5125 20.795 19.4264 21.0026C19.3403 21.2103 19.3178 21.4388 19.3617 21.6592C19.4056 21.8797 19.5139 22.0822 19.6729 22.2412C19.8319 22.4001 20.0346 22.5083 20.2553 22.5521C20.4758 22.596 20.7045 22.5735 20.9123 22.4875C21.1201 22.4015 21.2977 22.2558 21.4227 22.0689C21.5476 21.882 21.6143 21.6623 21.6143 21.4376C21.6143 21.1361 21.4945 20.847 21.2813 20.6339C21.0679 20.4208 20.7787 20.301 20.4771 20.301Z" fill="white"/>
<path d="M21.0736 19.0917C21.6078 18.7616 21.7732 18.0613 21.443 17.5274C21.1128 16.9935 20.412 16.8282 19.8778 17.1582C19.3435 17.4883 19.1781 18.1886 19.5083 18.7225C19.8385 19.2564 20.5393 19.4217 21.0736 19.0917Z" fill="white"/>
<path d="M24.4198 19.6573C25.2642 19.3078 25.6652 18.3403 25.3154 17.4965C24.9657 16.6526 23.9976 16.2519 23.1532 16.6014C22.3087 16.951 21.9078 17.9184 22.2575 18.7623C22.6072 19.6061 23.5754 20.0068 24.4198 19.6573Z" fill="white"/>
<path d="M7.23906 13.1697C8.1531 13.1697 8.89402 12.4293 8.89402 11.5159C8.89402 10.6025 8.1531 9.86206 7.23906 9.86206C6.32506 9.86206 5.58411 10.6025 5.58411 11.5159C5.58411 12.4293 6.32506 13.1697 7.23906 13.1697Z" fill="white"/>
<path d="M10.5489 9.86206C11.4629 9.86206 12.2039 9.12161 12.2039 8.20825C12.2039 7.29487 11.4629 6.55444 10.5489 6.55444C9.63492 6.55444 8.89392 7.29487 8.89392 8.20825C8.89392 9.12161 9.63492 9.86206 10.5489 9.86206Z" fill="white"/>
<path d="M11.1822 13.0435C12.0267 12.6939 12.4276 11.7265 12.0779 10.8826C11.7282 10.0388 10.76 9.6381 9.9156 9.98767C9.07118 10.3372 8.67021 11.3046 9.01995 12.1485C9.36968 12.9923 10.3378 13.3931 11.1822 13.0435Z" fill="white"/>
<path d="M7.50519 6.5282C8.40737 6.38185 9.02008 5.53234 8.87364 4.63076C8.72719 3.72919 7.87708 3.11696 6.97488 3.26332C6.07269 3.40967 5.46002 4.25918 5.60647 5.16075C5.75291 6.06232 6.60299 6.67455 7.50519 6.5282Z" fill="white"/>
<path d="M15.0274 19.2989C15.6737 18.653 15.6737 17.6059 15.0274 16.96C14.3811 16.3141 13.3333 16.3141 12.687 16.96C12.0407 17.6059 12.0407 18.653 12.687 19.2989C13.3333 19.9448 14.3811 19.9448 15.0274 19.2989Z" fill="white"/>
<path d="M3.93082 2.21187C4.0534 2.21187 4.17323 2.17554 4.27513 2.10746C4.37705 2.03938 4.45645 1.94262 4.50331 1.82943C4.55017 1.71624 4.56237 1.5917 4.53838 1.47158C4.51439 1.35145 4.45528 1.24114 4.36854 1.1546C4.28178 1.06805 4.17129 1.00917 4.05103 0.9854C3.93079 0.961631 3.80619 0.974044 3.69299 1.02107C3.5798 1.06809 3.48312 1.14761 3.41517 1.24956C3.34722 1.35151 3.31107 1.47132 3.31128 1.59381C3.31156 1.75783 3.37695 1.91503 3.49311 2.03091C3.60927 2.14679 3.76669 2.21187 3.93082 2.21187Z" fill="white"/>
<path d="M0.620602 10.8967C0.498023 10.8965 0.378135 10.9327 0.276112 11.0005C0.174088 11.0684 0.0945205 11.1651 0.0474658 11.2782C0.000411078 11.3913 -0.0120099 11.5158 0.0117755 11.636C0.0355609 11.7562 0.0944818 11.8665 0.181085 11.9533C0.267687 12.04 0.37808 12.099 0.498289 12.123C0.618498 12.1469 0.743121 12.1348 0.856389 12.088C0.969663 12.0411 1.06648 11.9617 1.1346 11.8599C1.20272 11.758 1.23909 11.6384 1.23909 11.5158C1.23881 11.3519 1.1736 11.1948 1.0577 11.0788C0.941803 10.9627 0.784646 10.8973 0.620602 10.8967Z" fill="white"/>
<path d="M0.620603 7.59009C0.497978 7.58988 0.378048 7.62604 0.276002 7.69398C0.173956 7.76193 0.0943855 7.85862 0.0473624 7.97179C0.000338976 8.08496 -0.0120181 8.20953 0.0118534 8.32973C0.035725 8.44993 0.094751 8.56034 0.181461 8.64699C0.268169 8.73364 0.378658 8.79262 0.498937 8.81648C0.619216 8.84033 0.743871 8.82798 0.857124 8.78099C0.970374 8.734 1.06712 8.65449 1.13512 8.55251C1.20312 8.45054 1.2393 8.33069 1.23909 8.20815C1.23881 8.04431 1.17356 7.88727 1.05763 7.77142C0.941708 7.65558 0.784549 7.59037 0.620603 7.59009Z" fill="white"/>
<path d="M3.92973 6.03709C4.55781 6.03709 5.06698 5.52827 5.06698 4.90062C5.06698 4.27297 4.55781 3.76416 3.92973 3.76416C3.30164 3.76416 2.79248 4.27297 2.79248 4.90062C2.79248 5.52827 3.30164 6.03709 3.92973 6.03709Z" fill="white"/>
<path d="M0.620602 14.2043C0.498023 14.2041 0.378135 14.2403 0.276112 14.3082C0.174088 14.3761 0.0945205 14.4727 0.0474658 14.5858C0.000411078 14.6989 -0.0120099 14.8235 0.0117755 14.9436C0.0355609 15.0638 0.0944818 15.1741 0.181085 15.2609C0.267687 15.3476 0.37808 15.4066 0.498289 15.4306C0.618498 15.4546 0.743121 15.4424 0.856389 15.3956C0.969663 15.3487 1.06648 15.2693 1.1346 15.1675C1.20272 15.0657 1.23909 14.946 1.23909 14.8235C1.23881 14.6596 1.1736 14.5024 1.0577 14.3863C0.941803 14.2703 0.784646 14.2049 0.620602 14.2043Z" fill="white"/>
<path d="M0.620603 4.2876C0.497978 4.28739 0.378048 4.32354 0.276002 4.39149C0.173956 4.45944 0.0943855 4.55612 0.0473624 4.66929C0.000338976 4.78246 -0.0120181 4.90704 0.0118534 5.02723C0.035725 5.14743 0.094751 5.25785 0.181461 5.34449C0.268169 5.43114 0.378658 5.49013 0.498937 5.51398C0.619216 5.53784 0.743871 5.52549 0.857124 5.4785C0.970374 5.43151 1.06712 5.35199 1.13512 5.25001C1.20312 5.14804 1.2393 5.02819 1.23909 4.90565C1.23881 4.74181 1.17356 4.58477 1.05763 4.46892C0.941708 4.35308 0.784549 4.28787 0.620603 4.2876Z" fill="white"/>
<path d="M0.620603 20.8196C0.497978 20.8193 0.378048 20.8555 0.276002 20.9235C0.173956 20.9914 0.0943855 21.0881 0.0473624 21.2013C0.000338976 21.3144 -0.0120181 21.439 0.0118534 21.5592C0.035725 21.6794 0.094751 21.7898 0.181461 21.8764C0.268169 21.9631 0.378658 22.0221 0.498937 22.0459C0.619216 22.0698 0.743871 22.0575 0.857124 22.0105C0.970374 21.9634 1.06712 21.8839 1.13512 21.782C1.20312 21.68 1.2393 21.5602 1.23909 21.4377C1.23881 21.2738 1.17356 21.1167 1.05763 21.0009C0.941708 20.885 0.784549 20.8198 0.620603 20.8196Z" fill="white"/>
<path d="M0.620603 17.512C0.497978 17.5117 0.378048 17.5479 0.276002 17.6159C0.173956 17.6838 0.0943855 17.7805 0.0473624 17.8937C0.000338976 18.0068 -0.0120181 18.1314 0.0118534 18.2516C0.035725 18.3718 0.094751 18.4822 0.181461 18.5688C0.268169 18.6555 0.378658 18.7145 0.498937 18.7383C0.619216 18.7622 0.743871 18.7499 0.857124 18.7029C0.970374 18.6558 1.06712 18.5763 1.13512 18.4744C1.20312 18.3724 1.2393 18.2526 1.23909 18.13C1.23881 17.9661 1.17356 17.8091 1.05763 17.6933C0.941708 17.5774 0.784549 17.5122 0.620603 17.512Z" fill="white"/>
<path d="M10.5481 17.512C10.4256 17.512 10.3057 17.5483 10.2038 17.6163C10.1019 17.6845 10.0225 17.7812 9.97564 17.8944C9.92875 18.0076 9.91659 18.1321 9.94059 18.2523C9.96451 18.3724 10.0236 18.4827 10.1104 18.5692C10.1972 18.6558 10.3076 18.7146 10.4279 18.7384C10.5482 18.7622 10.6727 18.7498 10.786 18.7027C10.8992 18.6558 10.9958 18.5763 11.0638 18.4743C11.1317 18.3723 11.1679 18.2525 11.1677 18.13C11.1674 17.966 11.102 17.8088 10.9859 17.6929C10.8696 17.577 10.7122 17.512 10.5481 17.512Z" fill="white"/>
<path d="M17.1666 5.51949C17.2892 5.51969 17.4091 5.48356 17.5111 5.41566C17.6131 5.34776 17.6927 5.25114 17.7397 5.13803C17.7868 5.02492 17.7993 4.9004 17.7754 4.78024C17.7516 4.66006 17.6928 4.54965 17.6061 4.46296C17.5195 4.37627 17.4092 4.3172 17.2889 4.29322C17.1687 4.26925 17.0441 4.28145 16.9308 4.32828C16.8175 4.3751 16.7208 4.45445 16.6526 4.5563C16.5845 4.65813 16.5481 4.77787 16.5481 4.90036C16.5484 5.0643 16.6136 5.22145 16.7295 5.33746C16.8454 5.45349 17.0026 5.51893 17.1666 5.51949Z" fill="white"/>
<path d="M17.1669 17.512C17.0444 17.512 16.9246 17.5483 16.8226 17.6163C16.7207 17.6845 16.6413 17.7812 16.5945 17.8944C16.5476 18.0076 16.5353 18.1321 16.5593 18.2523C16.5833 18.3724 16.6425 18.4827 16.7292 18.5692C16.816 18.6558 16.9264 18.7146 17.0467 18.7384C17.167 18.7622 17.2916 18.7498 17.4048 18.7027C17.5179 18.6558 17.6146 18.5763 17.6826 18.4743C17.7505 18.3723 17.7867 18.2525 17.7865 18.13C17.7862 17.966 17.7208 17.8088 17.6047 17.6929C17.4885 17.577 17.3311 17.512 17.1669 17.512Z" fill="white"/>
<path d="M13.8583 12.6521C14.0832 12.6521 14.3031 12.5854 14.4901 12.4605C14.6771 12.3356 14.8229 12.1582 14.909 11.9505C14.9951 11.7428 15.0176 11.5144 14.9737 11.2939C14.9299 11.0734 14.8215 10.8709 14.6625 10.712C14.5034 10.5531 14.3008 10.4449 14.0801 10.401C13.8596 10.3571 13.6309 10.3796 13.4231 10.4657C13.2153 10.5517 13.0376 10.6973 12.9128 10.8842C12.7878 11.0711 12.7211 11.2909 12.7211 11.5156C12.7211 11.817 12.8409 12.1061 13.0541 12.3192C13.2675 12.5324 13.5567 12.6521 13.8583 12.6521Z" fill="white"/>
<path d="M17.1669 20.8196C17.0444 20.8196 16.9246 20.8559 16.8226 20.9239C16.7207 20.9921 16.6413 21.0888 16.5945 21.202C16.5476 21.3152 16.5353 21.4397 16.5593 21.5599C16.5833 21.6799 16.6425 21.7903 16.7292 21.8768C16.816 21.9634 16.9264 22.0223 17.0467 22.046C17.167 22.0698 17.2916 22.0574 17.4048 22.0103C17.5179 21.9634 17.6146 21.8839 17.6826 21.7819C17.7505 21.6799 17.7867 21.5601 17.7865 21.4377C17.7862 21.2736 17.7208 21.1164 17.6047 21.0005C17.4885 20.8846 17.3311 20.8196 17.1669 20.8196Z" fill="white"/>
<path d="M3.92893 25.8392C4.53358 25.8392 5.02374 25.3494 5.02374 24.7452C5.02374 24.141 4.53358 23.6511 3.92893 23.6511C3.32428 23.6511 2.83411 24.141 2.83411 24.7452C2.83411 25.3494 3.32428 25.8392 3.92893 25.8392Z" fill="white"/>
<path d="M8.64746 25.6198C9.12801 24.8429 8.8873 23.8237 8.10983 23.3435C7.33236 22.8632 6.31255 23.1038 5.83202 23.8807C5.35148 24.6577 5.59218 25.6768 6.36966 26.1571C7.14712 26.6373 8.16691 26.3967 8.64746 25.6198Z" fill="white"/>
<path d="M20.4771 2.21187C20.5997 2.21208 20.7197 2.17591 20.8217 2.10796C20.9238 2.04002 21.0034 1.94334 21.0504 1.83016C21.0974 1.71699 21.1097 1.59242 21.0859 1.47223C21.062 1.35203 21.003 1.24162 20.9163 1.15497C20.8295 1.06832 20.7191 1.00933 20.5988 0.985478C20.4785 0.961623 20.3539 0.973972 20.2406 1.02096C20.1274 1.06795 20.0306 1.14747 19.9626 1.24945C19.8946 1.35142 19.8584 1.47127 19.8586 1.59381C19.859 1.75764 19.9242 1.91469 20.0401 2.03053C20.156 2.14638 20.3132 2.21159 20.4771 2.21187Z" fill="white"/>
<path d="M23.7864 6.5542C24.7004 6.5542 25.4414 5.81376 25.4414 4.90039C25.4414 3.98701 24.7004 3.24658 23.7864 3.24658C22.8724 3.24658 22.1315 3.98701 22.1315 4.90039C22.1315 5.81376 22.8724 6.5542 23.7864 6.5542Z" fill="white"/>
<path d="M24.4191 9.73594C25.2635 9.38636 25.6644 8.41891 25.3147 7.57506C24.965 6.73121 23.9968 6.33049 23.1524 6.68004C22.308 7.02959 21.907 7.99703 22.2568 8.84088C22.6066 9.6847 23.5746 10.0854 24.4191 9.73594Z" fill="white"/>
<path d="M65.1897 12.5431C64.681 11.9827 64.0598 11.5327 63.3657 11.2218C62.4784 10.8459 61.5141 10.6809 60.5505 10.74C59.5868 10.799 58.6507 11.0806 57.8172 11.5618C56.9037 12.1141 56.1552 12.8962 55.6488 13.828C55.1207 14.8451 54.8453 15.9715 54.8453 17.1143C54.8453 18.2572 55.1207 19.3836 55.6488 20.4007C56.1669 21.3713 56.9484 22.1803 57.9059 22.7374C58.8633 23.2944 59.9589 23.5774 61.07 23.5546C61.8698 23.5652 62.6643 23.4266 63.4119 23.1462C64.0829 22.8905 64.701 22.5162 65.2359 22.0415C65.7226 21.6144 66.1118 21.0901 66.378 20.5034L64.577 19.5905C64.2314 20.1726 63.7573 20.6703 63.1899 21.0466C62.5653 21.4429 61.833 21.642 61.0908 21.6171C60.3585 21.6217 59.639 21.4283 59.0102 21.0579C58.3734 20.6877 57.86 20.142 57.5329 19.4878C57.2648 18.9516 57.1166 18.3648 57.0983 17.7671H66.6114C66.6438 17.5845 66.6692 17.3928 66.6923 17.1874C66.7143 17.0018 66.7259 16.8151 66.7271 16.6283C66.7287 15.8776 66.5925 15.133 66.3248 14.4305C66.0671 13.7379 65.6823 13.0981 65.1897 12.5431ZM57.1654 15.9481C57.2209 15.5257 57.3434 15.1144 57.5283 14.7294C57.8253 14.0935 58.3025 13.5562 58.9024 13.1824C59.5022 12.8086 60.1988 12.6143 60.9082 12.623C61.595 12.6121 62.2699 12.8018 62.8478 13.1685C63.4133 13.53 63.8618 14.044 64.1401 14.6496C64.3283 15.0576 64.4282 15.4999 64.4337 15.9481H57.1654Z" fill="white"/>
<path d="M43.9408 14.5662L38.1162 6.27563H36.0691V23.2378H38.2986V10.3525L43.8268 18.2279H44.0091L49.5168 10.4711V23.2378H51.7691V6.27563H49.7197L43.9408 14.5662Z" fill="white"/>
<path d="M20.4775 16.476C21.3915 16.476 22.1324 15.7356 22.1324 14.8222C22.1324 13.9089 21.3915 13.1685 20.4775 13.1685C19.5634 13.1685 18.8225 13.9089 18.8225 14.8222C18.8225 15.7356 19.5634 16.476 20.4775 16.476Z" fill="white"/>
<path d="M23.7864 16.476C24.7004 16.476 25.4414 15.7356 25.4414 14.8222C25.4414 13.9089 24.7004 13.1685 23.7864 13.1685C22.8724 13.1685 22.1315 13.9089 22.1315 14.8222C22.1315 15.7356 22.8724 16.476 23.7864 16.476Z" fill="white"/>
<path d="M24.7885 12.8343C25.5157 12.2811 25.6565 11.2435 25.1029 10.5167C24.5493 9.78988 23.5109 9.64928 22.7837 10.2025C22.0565 10.7557 21.9157 11.7934 22.4693 12.5202C23.0229 13.247 24.0613 13.3876 24.7885 12.8343Z" fill="white"/>
<path d="M149.392 12.7461C148.977 12.1081 148.393 11.596 147.704 11.2663C146.924 10.8946 146.068 10.7107 145.203 10.7296C144.481 10.7278 143.765 10.8595 143.092 11.1178C142.443 11.3617 141.844 11.7208 141.324 12.1775C140.844 12.5916 140.467 13.1107 140.222 13.6938L142.082 14.6507C142.333 14.0676 142.753 13.5715 143.287 13.2257C143.843 12.8658 144.494 12.6797 145.156 12.6913C145.865 12.6572 146.562 12.8795 147.118 13.317C147.36 13.5139 147.553 13.7633 147.683 14.046C147.812 14.3287 147.875 14.6372 147.865 14.9476V15.5071L143.641 16.1922C142.838 16.3053 142.063 16.5689 141.358 16.9687C140.801 17.2853 140.341 17.7463 140.027 18.3024C139.74 18.8464 139.594 19.4534 139.604 20.0677C139.591 20.711 139.775 21.343 140.131 21.881C140.495 22.4147 140.999 22.8401 141.588 23.1119C142.261 23.4179 142.994 23.5693 143.733 23.5549C144.398 23.5619 145.059 23.4546 145.685 23.2375C146.251 23.0399 146.78 22.7463 147.245 22.3697C147.492 22.1668 147.715 21.937 147.911 21.6846V23.2832H149.999V14.9476C150.016 14.1709 149.804 13.4061 149.392 12.7461ZM147.865 18.0695C147.872 18.7249 147.702 19.3701 147.371 19.9375C147.049 20.495 146.581 20.9557 146.017 21.2712C145.396 21.6101 144.695 21.7795 143.986 21.7622C143.433 21.7828 142.891 21.6044 142.46 21.2598C142.268 21.1116 142.113 20.9213 142.008 20.7037C141.902 20.4862 141.849 20.2474 141.853 20.0061C141.847 19.7575 141.892 19.5104 141.984 19.2793C142.077 19.0482 142.215 18.838 142.391 18.661C142.753 18.2971 143.33 18.0466 144.125 17.9096L147.865 17.2862V18.0695Z" fill="white"/>
<path d="M134.791 11.3207C134.064 10.9195 133.241 10.7155 132.408 10.7294C131.56 10.7105 130.723 10.9349 130.002 11.3752C129.541 11.6658 129.152 12.0543 128.863 12.5124V11.0046H126.768V23.2379H128.909V15.9966C128.892 15.4019 129.026 14.8124 129.298 14.2818C129.544 13.8198 129.916 13.4347 130.371 13.1696C130.847 12.9088 131.381 12.7718 131.925 12.7718C132.468 12.7718 133.003 12.9088 133.478 13.1696C133.927 13.4301 134.29 13.8121 134.526 14.2704C134.786 14.8087 134.912 15.4004 134.894 15.9966V23.2356H137.058V15.3143C137.072 14.4877 136.861 13.6725 136.447 12.9536C136.056 12.2712 135.483 11.7068 134.791 11.3207Z" fill="white"/>
<path d="M85.0224 11.3201C84.2708 10.9087 83.4214 10.7051 82.5632 10.7306C81.705 10.7563 80.869 11.0102 80.1442 11.4657C79.5774 11.8314 79.1187 12.3383 78.8128 12.9353C78.4994 12.3696 78.0549 11.8855 77.5157 11.5226C76.7517 10.9965 75.8408 10.719 74.91 10.7287C74.1092 10.7177 73.3215 10.9306 72.6378 11.3429C72.1567 11.633 71.7548 12.0353 71.4671 12.5144V11.0017H69.3789V23.2379H71.5131V15.9971C71.4962 15.4033 71.6265 14.8145 71.8926 14.2819C72.125 13.8214 72.4843 13.4351 72.9291 13.1679C73.3739 12.9006 73.886 12.7632 74.4064 12.7714C74.9285 12.7601 75.4429 12.8984 75.8874 13.1696C76.3135 13.4419 76.6581 13.8221 76.8855 14.2706C77.1454 14.8089 77.2715 15.4009 77.2535 15.9971V23.2379H79.4108V15.9971C79.395 15.4037 79.5245 14.8152 79.7882 14.2819C80.0227 13.8244 80.3795 13.4396 80.8208 13.1696C81.2669 12.9025 81.78 12.7646 82.3019 12.7714C82.8237 12.7601 83.3385 12.8984 83.7829 13.1696C84.21 13.4406 84.555 13.8211 84.7808 14.2706C85.0421 14.8086 85.1677 15.4008 85.1487 15.9971V23.2379H87.3064V15.3147C87.319 14.4868 87.105 13.671 86.6874 12.9535C86.2887 12.2724 85.714 11.7087 85.0224 11.3201Z" fill="white"/>
<path d="M17.1669 16.476C18.081 16.476 18.8219 15.7356 18.8219 14.8222C18.8219 13.9089 18.081 13.1685 17.1669 13.1685C16.253 13.1685 15.512 13.9089 15.512 14.8222C15.512 15.7356 16.253 16.476 17.1669 16.476Z" fill="white"/>
<path d="M121.285 11.2661C120.506 10.8944 119.649 10.7106 118.784 10.7296C118.062 10.7279 117.347 10.8595 116.673 11.1177C116.024 11.361 115.426 11.72 114.907 12.177C114.426 12.5898 114.049 13.109 113.806 13.6928L115.663 14.6493C115.914 14.0664 116.334 13.5705 116.869 13.2248C117.424 12.8651 118.075 12.679 118.738 12.6906C119.449 12.6567 120.148 12.8807 120.706 13.3207C120.947 13.5181 121.139 13.7676 121.269 14.0501C121.398 14.3325 121.461 14.6406 121.451 14.9507V15.51L117.23 16.1949C116.426 16.3076 115.651 16.571 114.947 16.971C114.389 17.2875 113.929 17.7483 113.615 18.3042C113.327 18.8479 113.181 19.4546 113.19 20.0689C113.178 20.7122 113.363 21.3439 113.719 21.8816C114.083 22.4156 114.587 22.8411 115.176 23.112C115.849 23.4183 116.582 23.5697 117.321 23.5549C117.985 23.562 118.644 23.4546 119.271 23.2376C119.839 23.0406 120.367 22.7471 120.833 22.3701C121.079 22.1672 121.302 21.9375 121.497 21.6852V23.2833H123.585V14.9415C123.602 14.1652 123.39 13.4006 122.978 12.7409C122.562 12.1035 121.976 11.593 121.285 11.2661ZM121.446 18.0668C121.454 18.7218 121.284 19.3668 120.954 19.9342C120.632 20.491 120.163 20.9514 119.601 21.2674C118.979 21.6059 118.278 21.7752 117.57 21.7582C117.017 21.7788 116.474 21.6004 116.043 21.2561C115.851 21.1083 115.695 20.9182 115.59 20.7007C115.484 20.4832 115.431 20.2443 115.434 20.0027C115.428 19.754 115.473 19.5067 115.566 19.2757C115.659 19.0446 115.798 18.8345 115.974 18.6581C116.333 18.2943 116.91 18.044 117.706 17.907L121.446 17.2838V18.0668Z" fill="white"/>
<path d="M108.856 11.3344C108.411 11.5989 108.043 11.9792 107.788 12.4369V10.9601H105.764V23.2375H107.833V15.9336C107.833 14.9446 108.092 14.1837 108.611 13.6511C108.879 13.379 109.199 13.1665 109.551 13.0271C109.903 12.8877 110.28 12.8243 110.657 12.8409H111.705V10.8369H110.969C110.234 10.8092 109.505 10.9809 108.856 11.3344Z" fill="white"/>
<path d="M99.8873 11.5364C98.9384 10.9679 97.8473 10.6752 96.7381 10.6916C95.7828 10.6738 94.8378 10.8975 93.9939 11.3418C93.3876 11.6655 92.8539 12.107 92.4236 12.6398V6.27563H90.2762V23.2802H92.3778V21.49C92.7947 22.0757 93.3441 22.5564 93.982 22.8934C94.822 23.3393 95.7623 23.5669 96.7152 23.555C97.8315 23.5733 98.9312 23.2806 99.8873 22.7103C100.817 22.1493 101.579 21.3526 102.093 20.4027C102.624 19.3872 102.9 18.2607 102.9 17.1176C102.9 15.9745 102.624 14.848 102.093 13.8325C101.575 12.8882 100.814 12.0961 99.8873 11.5364ZM100.096 19.3634C99.7689 20.0054 99.2707 20.5462 98.6549 20.9269C98.0241 21.3129 97.2947 21.5115 96.5534 21.4993C95.8089 21.5102 95.077 21.3117 94.4423 20.9269C93.8186 20.5446 93.3086 20.005 92.9652 19.3634C92.6091 18.6696 92.4236 17.9025 92.4236 17.1245C92.4236 16.3464 92.6091 15.5793 92.9652 14.8855C93.3078 14.2428 93.8178 13.7022 94.4423 13.3197C95.0778 12.9355 95.8097 12.7371 96.5534 12.7474C97.2962 12.7356 98.0265 12.9385 98.6549 13.3311C99.266 13.7137 99.7634 14.2502 100.096 14.8855C100.454 15.5815 100.633 16.3548 100.616 17.1359C100.627 17.9091 100.449 18.6736 100.096 19.3634Z" fill="white"/>
<path d="M4.30856 16.4371C5.19812 16.2273 5.74905 15.3366 5.53909 14.4476C5.32914 13.5587 4.4378 13.0081 3.54824 13.2179C2.65868 13.4277 2.10774 14.3185 2.3177 15.2074C2.52765 16.0964 3.41899 16.6469 4.30856 16.4371Z" fill="white"/>
<path d="M3.9301 23.0915C4.8441 23.0915 5.58505 22.3511 5.58505 21.4377C5.58505 20.5244 4.8441 19.7839 3.9301 19.7839C3.01609 19.7839 2.27515 20.5244 2.27515 21.4377C2.27515 22.3511 3.01609 23.0915 3.9301 23.0915Z" fill="white"/>
<path d="M3.9301 19.7837C4.8441 19.7837 5.58505 19.0432 5.58505 18.1299C5.58505 17.2165 4.8441 16.4761 3.9301 16.4761C3.01609 16.4761 2.27515 17.2165 2.27515 18.1299C2.27515 19.0432 3.01609 19.7837 3.9301 19.7837Z" fill="white"/>
<path d="M8.40931 22.607C9.05565 21.9611 9.05565 20.914 8.40931 20.2681C7.76306 19.6222 6.71522 19.6222 6.06894 20.2681C5.42265 20.914 5.42266 21.9611 6.06894 22.607C6.71523 23.2529 7.76306 23.2529 8.40931 22.607Z" fill="white"/>
<path d="M3.9301 9.86206C4.8441 9.86206 5.58505 9.12161 5.58505 8.20825C5.58505 7.29487 4.8441 6.55444 3.9301 6.55444C3.01609 6.55444 2.27515 7.29487 2.27515 8.20825C2.27515 9.12161 3.01609 9.86206 3.9301 9.86206Z" fill="white"/>
<path d="M7.23906 19.7837C8.1531 19.7837 8.89402 19.0432 8.89402 18.1299C8.89402 17.2165 8.1531 16.4761 7.23906 16.4761C6.32506 16.4761 5.58411 17.2165 5.58411 18.1299C5.58411 19.0432 6.32506 19.7837 7.23906 19.7837Z" fill="white"/>
<path d="M3.9301 13.1697C4.8441 13.1697 5.58505 12.4293 5.58505 11.5159C5.58505 10.6025 4.8441 9.86206 3.9301 9.86206C3.01609 9.86206 2.27515 10.6025 2.27515 11.5159C2.27515 12.4293 3.01609 13.1697 3.9301 13.1697Z" fill="white"/>
<path d="M7.23906 9.86206C8.1531 9.86206 8.89402 9.12161 8.89402 8.20825C8.89402 7.29487 8.1531 6.55444 7.23906 6.55444C6.32506 6.55444 5.58411 7.29487 5.58411 8.20825C5.58411 9.12161 6.32506 9.86206 7.23906 9.86206Z" fill="white"/>
<path d="M20.4775 13.1697C21.3915 13.1697 22.1324 12.4293 22.1324 11.5159C22.1324 10.6025 21.3915 9.86206 20.4775 9.86206C19.5634 9.86206 18.8225 10.6025 18.8225 11.5159C18.8225 12.4293 19.5634 13.1697 20.4775 13.1697Z" fill="white"/>
<path d="M20.855 9.82286C21.7446 9.61301 22.2956 8.72231 22.0856 7.83336C21.8756 6.9444 20.9843 6.39386 20.0948 6.60368C19.2052 6.8135 18.6543 7.70423 18.8642 8.59319C19.0741 9.48212 19.9654 10.0327 20.855 9.82286Z" fill="white"/>
<path d="M17.4329 13.1433C18.3351 12.9969 18.9477 12.1473 18.8014 11.2458C18.6549 10.3442 17.8048 9.73194 16.9026 9.87831C16.0004 10.0247 15.3878 10.8742 15.5342 11.7758C15.6807 12.6773 16.5308 13.2895 17.4329 13.1433Z" fill="white"/>
<path d="M17.1669 9.86206C18.081 9.86206 18.8219 9.12161 18.8219 8.20825C18.8219 7.29487 18.081 6.55444 17.1669 6.55444C16.253 6.55444 15.512 7.29487 15.512 8.20825C15.512 9.12161 16.253 9.86206 17.1669 9.86206Z" fill="white"/>
<path d="M14.4912 16.3506C15.3356 16.0011 15.7366 15.0336 15.3869 14.1898C15.0371 13.346 14.0691 12.9452 13.2246 13.2948C12.3801 13.6443 11.9792 14.6117 12.3289 15.4556C12.6787 16.2995 13.6468 16.7002 14.4912 16.3506Z" fill="white"/>
<path d="M10.5489 16.476C11.4629 16.476 12.2039 15.7356 12.2039 14.8222C12.2039 13.9089 11.4629 13.1685 10.5489 13.1685C9.63492 13.1685 8.89392 13.9089 8.89392 14.8222C8.89392 15.7356 9.63492 16.476 10.5489 16.476Z" fill="white"/>
<path d="M7.23906 16.476C8.1531 16.476 8.89402 15.7356 8.89402 14.8222C8.89402 13.9089 8.1531 13.1685 7.23906 13.1685C6.32506 13.1685 5.58411 13.9089 5.58411 14.8222C5.58411 15.7356 6.32506 16.476 7.23906 16.476Z" fill="white"/>
</g>
<defs>
<clipPath id="clip0_1585_528">
<rect width="150" height="26.0526" fill="white" transform="translate(0 0.973633)"/>
</clipPath>
</defs>
</svg>
