<svg width="44" height="44" viewBox="0 0 44 44" fill="none" xmlns="http://www.w3.org/2000/svg">
<path d="M25.842 18.153C25.842 19.232 24.9631 20.1096 23.8826 20.1096C22.8021 20.1096 21.9232 19.232 21.9232 18.153C21.9232 17.074 22.8021 16.1961 23.8826 16.1961C24.9631 16.1961 25.842 17.074 25.842 18.153ZM6.77084 5.47723e-06C6.18253 5.47723e-06 5.70393 0.477913 5.70393 1.06541C5.70393 1.65291 6.18253 2.13082 6.77084 2.13082C7.35914 2.13082 7.83774 1.65291 7.83774 1.06541C7.83774 0.477911 7.35914 5.47723e-06 6.77084 5.47723e-06ZM1.06693 24.914C1.65523 24.914 2.13382 24.4361 2.13382 23.8486C2.13382 23.2612 1.65523 22.7833 1.06693 22.7833C0.478629 22.7833 5.48503e-06 23.2612 5.48503e-06 23.8486C5.48503e-06 24.4361 0.478629 24.914 1.06693 24.914ZM1.06693 11.3916C0.478629 11.3916 1.82834e-06 11.8696 1.82834e-06 12.4571C1.82834e-06 13.0445 0.478624 13.5224 1.06693 13.5224C1.65523 13.5224 2.13382 13.0445 2.13382 12.4571C2.13382 11.8696 1.65523 11.3916 1.06693 11.3916ZM1.06693 17.0874C0.478629 17.0874 3.65669e-06 17.5653 3.65669e-06 18.1528C3.65669e-06 18.7404 0.478629 19.2182 1.06693 19.2182C1.65523 19.2182 2.13382 18.7403 2.13382 18.1528C2.13382 17.5653 1.65523 17.0874 1.06693 17.0874ZM1.06693 30.6098C1.65523 30.6098 2.13382 30.1319 2.13382 29.5444C2.13382 28.957 1.65523 28.4791 1.06693 28.4791C0.478629 28.4791 5.48503e-06 28.957 5.48503e-06 29.5444C5.48503e-06 30.1319 0.478629 30.6098 1.06693 30.6098ZM1.06693 36.3056C1.65523 36.3056 2.13382 35.8277 2.13382 35.2403C2.13382 34.6528 1.65523 34.1748 1.06693 34.1748C0.478629 34.1748 5.48503e-06 34.6528 5.48503e-06 35.2403C5.48503e-06 35.8277 0.478629 36.3056 1.06693 36.3056ZM1.06693 5.69585C0.478624 5.69585 0 6.17377 0 6.76117C0 7.34872 0.478624 7.8266 1.06693 7.8266C1.65523 7.8266 2.13381 7.34872 2.13381 6.76117C2.13381 6.17377 1.65523 5.69585 1.06693 5.69585ZM6.77084 4.80466C5.6903 4.80466 4.81145 5.68231 4.81145 6.76127C4.81145 7.84023 5.6903 8.71788 6.77084 8.71788C7.85132 8.71788 8.73022 7.84023 8.73022 6.76127C8.73022 5.68231 7.85132 4.80466 6.77084 4.80466ZM12.4748 21.0007C10.8997 21.0007 9.6228 22.2758 9.6228 23.8486C9.6228 25.4215 10.8997 26.6965 12.4748 26.6965C14.0499 26.6965 15.3267 25.4215 15.3267 23.8486C15.3267 22.2758 14.0499 21.0007 12.4748 21.0007ZM12.4748 9.60912C10.8997 9.60912 9.6228 10.8842 9.6228 12.457C9.6228 14.0299 10.8997 15.3049 12.4748 15.3049C14.0499 15.3049 15.3267 14.0299 15.3267 12.457C15.3267 10.8842 14.0499 9.60912 12.4748 9.60912ZM12.4748 3.91331C10.8997 3.91331 9.6228 5.18837 9.6228 6.76122C9.6228 8.33408 10.8997 9.60912 12.4748 9.60912C14.0499 9.60912 15.3267 8.33408 15.3267 6.76122C15.3267 5.18837 14.0499 3.91331 12.4748 3.91331ZM12.4748 15.3049C10.8997 15.3049 9.6228 16.58 9.6228 18.1528C9.6228 19.7257 10.8997 21.0007 12.4748 21.0007C14.0499 21.0007 15.3267 19.7257 15.3267 18.1528C15.3267 16.58 14.0499 15.3049 12.4748 15.3049ZM12.4748 32.3923C10.8997 32.3923 9.6228 33.6674 9.6228 35.2402C9.6228 36.8131 10.8997 38.0882 12.4748 38.0882C14.0499 38.0882 15.3267 36.8131 15.3267 35.2402C15.3267 33.6674 14.0499 32.3923 12.4748 32.3923ZM12.4748 26.6965C10.8997 26.6965 9.6228 27.9716 9.6228 29.5444C9.6228 31.1173 10.8997 32.3923 12.4748 32.3923C14.0499 32.3923 15.3267 31.1173 15.3267 29.5444C15.3267 27.9716 14.0499 26.6965 12.4748 26.6965ZM6.77084 21.0007C5.19573 21.0007 3.91888 22.2758 3.91888 23.8486C3.91888 25.4215 5.19573 26.6965 6.77084 26.6965C8.34594 26.6965 9.6228 25.4215 9.6228 23.8486C9.6228 22.2758 8.34594 21.0007 6.77084 21.0007ZM6.77084 9.60912C5.19573 9.60912 3.91888 10.8842 3.91888 12.457C3.91888 14.0299 5.19573 15.3049 6.77084 15.3049C8.34594 15.3049 9.6228 14.0299 9.6228 12.457C9.6228 10.8842 8.34594 9.60912 6.77084 9.60912ZM6.77084 15.3049C5.19573 15.3049 3.91888 16.58 3.91888 18.1528C3.91888 19.7257 5.19573 21.0007 6.77084 21.0007C8.34594 21.0007 9.6228 19.7257 9.6228 18.1528C9.6228 16.58 8.34594 15.3049 6.77084 15.3049ZM6.77084 26.6965C5.19573 26.6965 3.91888 27.9716 3.91888 29.5444C3.91888 31.1173 5.19573 32.3923 6.77084 32.3923C8.34594 32.3923 9.6228 31.1173 9.6228 29.5444C9.6228 27.9716 8.34594 26.6965 6.77084 26.6965ZM6.77084 32.3923C5.19573 32.3923 3.91888 33.6674 3.91888 35.2402C3.91888 36.8131 5.19573 38.0882 6.77084 38.0882C8.34594 38.0882 9.6228 36.8131 9.6228 35.2402C9.6228 33.6674 8.34594 32.3923 6.77084 32.3923ZM6.77084 39.0522C5.72899 39.0522 4.88438 39.8957 4.88438 40.9361C4.88438 41.9764 5.72899 42.8198 6.77084 42.8198C7.81273 42.8198 8.65734 41.9764 8.65734 40.9361C8.65734 39.8957 7.81273 39.0522 6.77084 39.0522ZM18.1787 15.3049C16.6036 15.3049 15.3267 16.58 15.3267 18.1528C15.3267 19.7257 16.6036 21.0007 18.1787 21.0007C19.7538 21.0007 21.0307 19.7257 21.0307 18.1528C21.0307 16.58 19.7538 15.3049 18.1787 15.3049ZM23.8826 21.0007C22.3075 21.0007 21.0307 22.2758 21.0307 23.8486C21.0307 25.4215 22.3075 26.6965 23.8826 26.6965C25.4577 26.6965 26.7346 25.4215 26.7346 23.8486C26.7346 22.2758 25.4577 21.0007 23.8826 21.0007ZM18.1787 9.60912C16.6036 9.60912 15.3267 10.8842 15.3267 12.457C15.3267 14.0299 16.6036 15.3049 18.1787 15.3049C19.7538 15.3049 21.0307 14.0299 21.0307 12.457C21.0307 10.8842 19.7538 9.60912 18.1787 9.60912ZM23.8826 26.6965C22.3075 26.6965 21.0307 27.9716 21.0307 29.5444C21.0307 31.1173 22.3075 32.3923 23.8826 32.3923C25.4577 32.3923 26.7346 31.1173 26.7346 29.5444C26.7346 27.9716 25.4577 26.6965 23.8826 26.6965ZM18.1787 21.0007C16.6036 21.0007 15.3267 22.2758 15.3267 23.8486C15.3267 25.4215 16.6036 26.6965 18.1787 26.6965C19.7538 26.6965 21.0307 25.4215 21.0307 23.8486C21.0307 22.2758 19.7538 21.0007 18.1787 21.0007ZM35.2905 9.60912C33.7154 9.60912 32.4385 10.8842 32.4385 12.457C32.4385 14.0299 33.7154 15.3049 35.2905 15.3049C36.8656 15.3049 38.1425 14.0299 38.1425 12.457C38.1425 10.8842 36.8656 9.60912 35.2905 9.60912ZM29.5866 15.3049C28.0115 15.3049 26.7346 16.58 26.7346 18.1528C26.7346 19.7257 28.0115 21.0007 29.5866 21.0007C31.1617 21.0007 32.4385 19.7257 32.4385 18.1528C32.4385 16.58 31.1617 15.3049 29.5866 15.3049ZM40.9944 9.60912C39.4193 9.60912 38.1425 10.8842 38.1425 12.457C38.1425 14.0299 39.4193 15.3049 40.9944 15.3049C42.5695 15.3049 43.8464 14.0299 43.8464 12.457C43.8464 10.8842 42.5695 9.60912 40.9944 9.60912ZM40.9944 15.3049C39.4193 15.3049 38.1425 16.58 38.1425 18.1528C38.1425 19.7257 39.4193 21.0007 40.9944 21.0007C42.5695 21.0007 43.8464 19.7257 43.8464 18.1528C43.8464 16.58 42.5695 15.3049 40.9944 15.3049ZM40.9944 3.9133C39.4193 3.9133 38.1425 5.18837 38.1425 6.76122C38.1425 8.33408 39.4193 9.60912 40.9944 9.60912C42.5695 9.60912 43.8464 8.33408 43.8464 6.76122C43.8464 5.18837 42.5695 3.9133 40.9944 3.9133ZM29.5866 9.60912C28.0115 9.60912 26.7346 10.8842 26.7346 12.457C26.7346 14.0299 28.0115 15.3049 29.5866 15.3049C31.1617 15.3049 32.4385 14.0299 32.4385 12.457C32.4385 10.8842 31.1617 9.60912 29.5866 9.60912ZM35.2905 15.3049C33.7154 15.3049 32.4385 16.58 32.4385 18.1528C32.4385 19.7257 33.7154 21.0007 35.2905 21.0007C36.8656 21.0007 38.1425 19.7257 38.1425 18.1528C38.1425 16.58 36.8656 15.3049 35.2905 15.3049ZM40.9944 32.3923C39.4193 32.3923 38.1425 33.6674 38.1425 35.2402C38.1425 36.8131 39.4193 38.0881 40.9944 38.0881C42.5695 38.0881 43.8464 36.8131 43.8464 35.2402C43.8464 33.6674 42.5695 32.3923 40.9944 32.3923ZM12.4748 38.0882C10.8997 38.0882 9.6228 39.3632 9.6228 40.9361C9.6228 42.5089 10.8997 43.784 12.4748 43.784C14.0499 43.784 15.3267 42.5089 15.3267 40.9361C15.3267 39.3632 14.0499 38.0882 12.4748 38.0882ZM40.9944 38.0881C39.4193 38.0881 38.1425 39.3632 38.1425 40.9361C38.1425 42.5089 39.4193 43.784 40.9944 43.784C42.5695 43.784 43.8464 42.5089 43.8464 40.9361C43.8464 39.3632 42.5695 38.0881 40.9944 38.0881ZM33.3312 6.76127C33.3312 7.84023 34.21 8.71784 35.2906 8.71784C36.3711 8.71784 37.25 7.84023 37.25 6.76127C37.25 5.68231 36.3711 4.80466 35.2906 4.80466C34.21 4.80466 33.3312 5.68231 33.3312 6.76127ZM29.5866 5.69585C28.9983 5.69585 28.5197 6.17377 28.5197 6.76117C28.5197 7.34867 28.9983 7.8266 29.5866 7.8266C30.1749 7.8266 30.6535 7.34867 30.6535 6.76117C30.6535 6.17377 30.1749 5.69585 29.5866 5.69585ZM35.2905 0C34.7022 0 34.2236 0.477907 34.2236 1.06541C34.2236 1.65291 34.7022 2.13081 35.2905 2.13081C35.8788 2.13081 36.3574 1.65291 36.3574 1.06541C36.3574 0.477906 35.8788 0 35.2905 0ZM33.3312 35.2401C33.3312 36.3191 34.2101 37.197 35.2906 37.197C36.3711 37.197 37.25 36.3191 37.25 35.2401C37.25 34.1611 36.3711 33.2835 35.2906 33.2835C34.2101 33.2835 33.3312 34.1611 33.3312 35.2401ZM37.25 29.5444C37.25 28.4654 36.3711 27.5878 35.2906 27.5878C34.2101 27.5878 33.3312 28.4654 33.3312 29.5444C33.3312 30.6234 34.2101 31.501 35.2906 31.501C36.3711 31.501 37.25 30.6234 37.25 29.5444ZM29.5866 34.1748C28.9983 34.1748 28.5197 34.6528 28.5197 35.2403C28.5197 35.8277 28.9983 36.3056 29.5866 36.3056C30.1749 36.3056 30.6535 35.8277 30.6535 35.2403C30.6535 34.6528 30.1749 34.1748 29.5866 34.1748ZM29.5866 28.479C28.9983 28.479 28.5197 28.957 28.5197 29.5444C28.5197 30.1319 28.9983 30.6098 29.5866 30.6098C30.1749 30.6098 30.6535 30.1319 30.6535 29.5444C30.6535 28.957 30.1749 28.479 29.5866 28.479ZM18.1787 28.479C17.5904 28.479 17.1118 28.957 17.1118 29.5444C17.1118 30.1319 17.5904 30.6098 18.1787 30.6098C18.767 30.6098 19.2456 30.1319 19.2456 29.5444C19.2456 28.957 18.767 28.479 18.1787 28.479ZM29.5866 21.0007C28.0115 21.0007 26.7346 22.2758 26.7346 23.8486C26.7346 25.4215 28.0115 26.6965 29.5866 26.6965C31.1617 26.6965 32.4385 25.4215 32.4385 23.8486C32.4385 22.2758 31.1617 21.0007 29.5866 21.0007ZM35.2905 21.0007C33.7154 21.0007 32.4385 22.2758 32.4385 23.8486C32.4385 25.4215 33.7154 26.6965 35.2905 26.6965C36.8656 26.6965 38.1425 25.4215 38.1425 23.8486C38.1425 22.2758 36.8656 21.0007 35.2905 21.0007ZM40.9944 21.0007C39.4193 21.0007 38.1425 22.2758 38.1425 23.8486C38.1425 25.4215 39.4193 26.6965 40.9944 26.6965C42.5695 26.6965 43.8464 25.4215 43.8464 23.8486C43.8464 22.2758 42.5695 21.0007 40.9944 21.0007ZM40.9944 26.6965C39.4193 26.6965 38.1425 27.9716 38.1425 29.5444C38.1425 31.1173 39.4193 32.3923 40.9944 32.3923C42.5695 32.3923 43.8464 31.1173 43.8464 29.5444C43.8464 27.9716 42.5695 26.6965 40.9944 26.6965Z" fill="white"/>
</svg>
