<svg width="92" height="27" viewBox="0 0 92 27" fill="none" xmlns="http://www.w3.org/2000/svg">
<path d="M1.00006 13.6192V0.043457H2.64241L7.73397 7.27768H6.89415L11.9489 0.043457H13.5912V13.6192H11.7848V2.30314L12.4238 2.50363L7.36906 9.61025H7.22271L2.22297 2.50363L2.78828 2.30314V13.6192H1.00006ZM20.9273 13.838C19.9779 13.838 19.1324 13.6133 18.3906 13.1636C17.6483 12.7143 17.0644 12.0978 16.6387 11.314C16.2131 10.5307 16.0002 9.65311 16.0002 8.68114C16.0002 7.69687 16.2097 6.82247 16.6296 6.05692C17.0491 5.29189 17.6211 4.68766 18.3447 4.24383C19.0683 3.80048 19.8808 3.57857 20.7809 3.57857C21.5112 3.57857 22.1588 3.70933 22.7246 3.97041C23.2904 4.23197 23.7705 4.58421 24.1661 5.02756C24.5611 5.47095 24.8658 5.9749 25.0786 6.53996C25.2914 7.10498 25.3976 7.69099 25.3976 8.29838C25.3976 8.43234 25.3885 8.58089 25.3703 8.74494C25.3521 8.90898 25.3311 9.06346 25.3062 9.20928H17.2408V7.75159H24.321L23.518 8.40776C23.6275 7.77617 23.5668 7.21115 23.3358 6.71309C23.1048 6.21508 22.7638 5.81999 22.3138 5.52834C21.8632 5.23718 21.3529 5.09136 20.7809 5.09136C20.2089 5.09136 19.6857 5.23718 19.2118 5.52834C18.7373 5.81999 18.3691 6.23646 18.1075 6.77689C17.8458 7.31733 17.7397 7.95844 17.7884 8.69936C17.7397 9.41613 17.8521 10.0449 18.1256 10.5854C18.3997 11.1258 18.789 11.5451 19.294 11.8426C19.7986 12.1406 20.3491 12.2891 20.9454 12.2891C21.6021 12.2891 22.1554 12.1374 22.606 11.8335C23.056 11.53 23.4209 11.1409 23.7007 10.6674L25.1245 11.396C24.9294 11.8458 24.6285 12.2559 24.2206 12.6264C23.8131 12.9968 23.3329 13.2911 22.7791 13.5099C22.2253 13.7286 21.6083 13.838 20.9273 13.838ZM27.6057 13.6192V3.79728H29.2662V5.80177L29.0295 5.4919C29.2729 4.87265 29.6618 4.39874 30.1974 4.07065C30.7326 3.74261 31.3342 3.57857 32.0038 3.57857C32.77 3.57857 33.4606 3.79135 34.0751 4.21647C34.6892 4.64208 35.112 5.20074 35.343 5.89292L34.8686 5.91114C35.124 5.14607 35.5558 4.56599 36.1647 4.1709C36.7725 3.77633 37.4478 3.57857 38.1901 3.57857C38.8711 3.57857 39.4886 3.73668 40.0424 4.05243C40.5953 4.36866 41.0367 4.80612 41.3653 5.3643C41.6938 5.92344 41.8579 6.55546 41.8579 7.25946V13.6192H40.1424V7.80625C40.1424 7.25946 40.0453 6.79832 39.8506 6.4215C39.656 6.0451 39.391 5.75026 39.0567 5.53748C38.7219 5.32513 38.3298 5.21896 37.8797 5.21896C37.4416 5.21896 37.0495 5.32513 36.7027 5.53748C36.356 5.75026 36.0824 6.04783 35.8815 6.43058C35.6807 6.81334 35.5802 7.27175 35.5802 7.80625V13.6192H33.8652V7.80625C33.8652 7.25946 33.7676 6.79832 33.573 6.4215C33.3783 6.0451 33.1134 5.75026 32.7791 5.53748C32.4448 5.32513 32.0521 5.21896 31.6021 5.21896C31.164 5.21896 30.7723 5.32513 30.4255 5.53748C30.0788 5.75026 29.8048 6.04783 29.6039 6.43058C29.403 6.81334 29.3031 7.27175 29.3031 7.80625V13.6192H27.6057ZM49.358 13.838C48.5669 13.838 47.8462 13.6616 47.1958 13.3094C46.5444 12.9572 46.0427 12.4591 45.6902 11.8152L45.9269 11.5236V13.6192H44.2664V0.0574704H45.9638V5.91114L45.7079 5.4919C46.0733 4.90909 46.5716 4.44432 47.2048 4.09801C47.8371 3.7517 48.5607 3.57857 49.3761 3.57857C50.3006 3.57857 51.1309 3.80364 51.8669 4.25292C52.603 4.70267 53.1841 5.31284 53.6097 6.08427C54.0354 6.85571 54.2487 7.73337 54.2487 8.71758C54.2487 9.67726 54.0354 10.5457 53.6097 11.3231C53.1841 12.1009 52.603 12.7143 51.8669 13.1636C51.1309 13.6133 50.2944 13.838 49.358 13.838ZM49.2303 12.198C49.8506 12.198 50.4039 12.0463 50.8908 11.7423C51.3772 11.4389 51.7574 11.0224 52.0314 10.4943C52.305 9.9657 52.4418 9.37332 52.4418 8.71758C52.4418 8.0373 52.305 7.439 52.0314 6.92271C51.7574 6.40643 51.3772 5.99317 50.8908 5.6833C50.4039 5.37344 49.8506 5.21896 49.2303 5.21896C48.61 5.21896 48.0533 5.37071 47.5602 5.67417C47.0681 5.9781 46.6783 6.39414 46.3923 6.92271C46.1063 7.45086 45.9638 8.04959 45.9638 8.71758C45.9638 9.37332 46.1063 9.9657 46.3923 10.4943C46.6783 11.0224 47.0681 11.4389 47.5602 11.7423C48.0533 12.0463 48.61 12.198 49.2303 12.198ZM56.4745 13.6192V3.79728H58.135V5.60128L57.9523 5.34656C58.1838 4.7879 58.5368 4.37143 59.0112 4.09801C59.4856 3.82459 60.0634 3.6879 60.7449 3.6879H61.347V5.29189H60.489C59.7955 5.29189 59.236 5.5074 58.8103 5.93845C58.3842 6.36999 58.1714 6.98015 58.1714 7.76981V13.6192H56.4745ZM65.7446 13.838C65.0994 13.838 64.5308 13.7195 64.0382 13.4825C63.5456 13.2456 63.1591 12.9175 62.8794 12.4988C62.5996 12.0795 62.4599 11.5965 62.4599 11.0497C62.4599 10.5275 62.5723 10.0568 62.7971 9.63761C63.0224 9.21837 63.3748 8.8634 63.856 8.57181C64.3361 8.28016 64.9416 8.07374 65.6714 7.95208L69.3211 7.35057V8.77229L66.055 9.31861C65.4218 9.42799 64.9627 9.62847 64.6767 9.92012C64.3911 10.2118 64.2481 10.5704 64.2481 10.9951C64.2481 11.396 64.4093 11.7305 64.7317 11.9975C65.0535 12.265 65.4586 12.3985 65.9455 12.3985C66.5653 12.3985 67.1038 12.2677 67.5601 12.0066C68.0164 11.7455 68.3751 11.3901 68.6367 10.9403C68.8983 10.4911 69.0293 9.99301 69.0293 9.44621V6.95007C69.0293 6.41557 68.8313 5.98131 68.4358 5.64686C68.0408 5.31284 67.5204 5.14607 66.8757 5.14607C66.3161 5.14607 65.8202 5.28869 65.3888 5.57392C64.9564 5.85964 64.637 6.23923 64.4304 6.71309L62.9525 5.94759C63.1348 5.49831 63.427 5.09456 63.8287 4.73596C64.23 4.37779 64.6982 4.09528 65.2334 3.88839C65.7685 3.68197 66.3281 3.57857 66.9121 3.57857C67.6668 3.57857 68.3296 3.72162 68.9016 4.0069C69.4732 4.29257 69.9203 4.68766 70.2427 5.1916C70.5645 5.69559 70.7262 6.28204 70.7262 6.95007V13.6192H69.0657V11.7606L69.3761 11.8699C69.169 12.2586 68.8892 12.599 68.5362 12.8902C68.1838 13.1818 67.7701 13.4128 67.2956 13.5828C66.8212 13.7528 66.3042 13.838 65.7446 13.838ZM73.3538 13.6192V3.79728H75.0143V5.71061L74.7407 5.54657C74.9841 4.92731 75.3763 4.44432 75.9177 4.09801C76.4591 3.7517 77.0947 3.57857 77.8245 3.57857C78.5304 3.57857 79.1594 3.73668 79.7137 4.05243C80.267 4.36866 80.7046 4.80612 81.027 5.3643C81.3493 5.92344 81.511 6.55546 81.511 7.25946V13.6192H79.7954V7.80625C79.7954 7.25946 79.6979 6.79832 79.5037 6.4215C79.3086 6.0451 79.0317 5.75026 78.673 5.53748C78.3143 5.32513 77.9034 5.21896 77.4414 5.21896C76.979 5.21896 76.5686 5.32513 76.2099 5.53748C75.8507 5.75026 75.5676 6.04783 75.361 6.43058C75.1544 6.81334 75.0506 7.27175 75.0506 7.80625V13.6192H73.3538ZM86.8211 13.838C86.1759 13.838 85.6073 13.7195 85.1147 13.4825C84.6221 13.2456 84.2356 12.9175 83.9558 12.4988C83.6761 12.0795 83.5364 11.5965 83.5364 11.0497C83.5364 10.5275 83.6488 10.0568 83.8736 9.63761C84.0988 9.21837 84.4513 8.8634 84.9324 8.57181C85.4131 8.28016 86.0181 8.07374 86.7479 7.95208L90.3975 7.35057V8.77229L87.1315 9.31861C86.4983 9.42799 86.0391 9.62847 85.7531 9.92012C85.4676 10.2118 85.3246 10.5704 85.3246 10.9951C85.3246 11.396 85.4858 11.7305 85.8081 11.9975C86.13 12.265 86.5351 12.3985 87.022 12.3985C87.6418 12.3985 88.1803 12.2677 88.6366 12.0066C89.0928 11.7455 89.4515 11.3901 89.7131 10.9403C89.9748 10.4911 90.1058 9.99301 90.1058 9.44621V6.95007C90.1058 6.41557 89.9078 5.98131 89.5123 5.64686C89.1172 5.31284 88.5969 5.14607 87.9522 5.14607C87.3926 5.14607 86.8967 5.28869 86.4653 5.57392C86.0329 5.85964 85.7135 6.23923 85.5068 6.71309L84.029 5.94759C84.2112 5.49831 84.5034 5.09456 84.9052 4.73596C85.3064 4.37779 85.7747 4.09528 86.3098 3.88839C86.8455 3.68197 87.4046 3.57857 87.989 3.57857C88.7432 3.57857 89.4061 3.72162 89.9781 4.0069C90.5496 4.29257 90.9968 4.68766 91.3191 5.1916C91.641 5.69559 91.8027 6.28204 91.8027 6.95007V13.6192H90.1421V11.7606L90.4525 11.8699C90.2454 12.2586 89.9657 12.599 89.6127 12.8902C89.2602 13.1818 88.8465 13.4128 88.3721 13.5828C87.8977 13.7528 87.3807 13.838 86.8211 13.838Z" fill="white"/>
<path d="M0.837341 26.6538V24.7283C1.16017 24.7283 1.39164 24.6249 1.53177 24.4179C1.6719 24.2075 1.78621 23.8726 1.87373 23.4131C1.93352 23.115 1.9823 22.7941 2.02104 22.4504C2.05978 22.1066 2.09278 21.7138 2.12099 21.2719C2.14921 20.8265 2.17551 20.3057 2.19991 19.7095H5.95616V24.7283H6.5033V26.6538H5.75625V25.3912H1.57912V26.6538H0.837341ZM2.1473 24.7283H5.18808V20.3723H2.91538C2.90486 20.6389 2.88908 20.9212 2.86803 21.2193C2.85034 21.5174 2.82786 21.8156 2.79964 22.1137C2.77525 22.4118 2.74512 22.6924 2.71021 22.9554C2.67864 23.215 2.6399 23.4429 2.59447 23.6393C2.54186 23.8918 2.48399 24.1075 2.42086 24.2864C2.36108 24.4653 2.27021 24.6126 2.1473 24.7283ZM6.82517 25.3912V24.7125C7.0356 24.7511 7.19534 24.7423 7.3039 24.6862C7.4163 24.6266 7.49856 24.5284 7.55116 24.3916C7.60377 24.2514 7.64778 24.0777 7.68269 23.8708C7.73913 23.5271 7.78982 23.1483 7.83526 22.7345C7.88117 22.3206 7.92134 21.8646 7.95625 21.3666C7.99499 20.8651 8.03373 20.3127 8.07199 19.7095H11.9335V25.3912H11.1654V20.4512H8.78747C8.76308 20.823 8.73486 21.193 8.70329 21.5613C8.67173 21.9295 8.63873 22.2838 8.60334 22.624C8.57177 22.9607 8.53686 23.2711 8.49812 23.5552C8.45986 23.8392 8.41921 24.0847 8.37712 24.2917C8.31399 24.6038 8.22982 24.8528 8.1246 25.0387C8.02321 25.2246 7.87064 25.3473 7.66691 25.407C7.46364 25.4666 7.1829 25.4614 6.82517 25.3912ZM16.9653 25.3912V23.25H15.6395C15.485 23.25 15.3253 23.2448 15.1608 23.2342C14.9991 23.2202 14.8485 23.2009 14.7083 23.1764C14.3085 23.0992 13.968 22.9238 13.6877 22.6503C13.4103 22.3732 13.2721 21.9909 13.2721 21.5034C13.2721 21.0264 13.4017 20.6441 13.6614 20.3565C13.9206 20.0654 14.2349 19.876 14.6031 19.7884C14.7715 19.7498 14.9412 19.727 15.1134 19.72C15.2885 19.7129 15.4396 19.7095 15.5659 19.7095H17.7386L17.7439 25.3912H16.9653ZM13.088 25.3912L14.6715 23.008H15.529L13.935 25.3912H13.088ZM15.5974 22.5871H16.9653V20.3723H15.5974C15.5133 20.3723 15.3956 20.3758 15.2449 20.3828C15.0938 20.3899 14.9518 20.4126 14.8188 20.4512C14.7031 20.4863 14.5873 20.5477 14.4716 20.6354C14.3592 20.7195 14.2645 20.8335 14.1875 20.9773C14.11 21.1176 14.0718 21.2895 14.0718 21.4929C14.0718 21.777 14.1488 22.005 14.3032 22.1768C14.4611 22.3451 14.6572 22.4609 14.8925 22.524C15.0187 22.5521 15.145 22.5696 15.2713 22.5766C15.3975 22.5837 15.5061 22.5871 15.5974 22.5871ZM23.6035 25.5543C23.0741 25.5508 22.6197 25.435 22.2409 25.2071C21.8622 24.9791 21.5676 24.6389 21.3571 24.1865C21.15 23.734 21.0381 23.1693 21.0204 22.4925C21.0099 22.1944 21.0171 21.8699 21.0415 21.5192C21.0659 21.1649 21.1046 20.8282 21.1572 20.5091C21.2098 20.19 21.2729 19.9304 21.3466 19.7305C21.4379 19.4709 21.5676 19.2289 21.7359 19.0045C21.9076 18.7765 22.1061 18.5907 22.3304 18.4468C22.548 18.2995 22.7933 18.1856 23.0669 18.1049C23.3438 18.0207 23.6317 17.9558 23.9297 17.9102C24.2315 17.8647 24.5294 17.8243 24.824 17.7892C25.122 17.7542 25.3975 17.7103 25.65 17.6577L25.7342 18.3574C25.5414 18.396 25.3133 18.4311 25.0503 18.4626C24.7872 18.4942 24.5117 18.5328 24.2243 18.5784C23.9369 18.6205 23.6614 18.6783 23.3983 18.752C23.1353 18.8256 22.911 18.9221 22.7249 19.0413C22.4409 19.2132 22.2218 19.4727 22.0673 19.8199C21.9167 20.1671 21.8234 20.5652 21.7885 21.0141C22.0061 20.674 22.2936 20.4179 22.6513 20.2461C23.0124 20.0742 23.4036 19.9883 23.8245 19.9883C24.3367 19.9883 24.7767 20.1058 25.1449 20.3408C25.5166 20.5757 25.8026 20.9019 26.0025 21.3193C26.2024 21.7367 26.3023 22.2154 26.3023 22.7555C26.3023 23.3202 26.1919 23.8129 25.9709 24.2338C25.7533 24.6547 25.4429 24.9808 25.0397 25.2123C24.6366 25.4403 24.1578 25.5543 23.6035 25.5543ZM23.6614 24.8125C24.2578 24.8125 24.7102 24.6266 25.0187 24.2548C25.331 23.8831 25.4869 23.3886 25.4869 22.7713C25.4869 22.14 25.3257 21.642 25.0029 21.2772C24.6839 20.9124 24.2329 20.7301 23.6509 20.7301C23.0688 20.7301 22.6216 20.9124 22.3093 21.2772C21.997 21.642 21.8411 22.14 21.8411 22.7713C21.8411 23.4026 21.997 23.9006 22.3093 24.2654C22.6216 24.6301 23.0722 24.8125 23.6614 24.8125ZM31.9736 19.7095V25.3912H31.2213V20.9668L28.1068 25.3912H27.4545V19.7095H28.2068V24.097L31.3265 19.7095H31.9736ZM35.4969 25.549C34.9249 25.549 34.4251 25.4245 33.9976 25.1755C33.5729 24.923 33.2381 24.574 32.9927 24.1286L33.6135 23.734C33.8201 24.0847 34.0779 24.3513 34.3869 24.5337C34.6953 24.716 35.0497 24.8072 35.4496 24.8072C35.8666 24.8072 36.2019 24.7108 36.4544 24.5179C36.7069 24.325 36.8332 24.0602 36.8332 23.7235C36.8332 23.492 36.7786 23.3079 36.6701 23.1711C36.5649 23.0343 36.4032 22.9361 36.1861 22.8765C35.9718 22.8169 35.7035 22.7871 35.3812 22.7871H34.7078V22.1242H35.3706C35.7633 22.1242 36.0789 22.054 36.3176 21.9138C36.5596 21.7699 36.6806 21.5455 36.6806 21.2404C36.6806 20.9177 36.5596 20.6792 36.3176 20.5249C36.0789 20.3671 35.7929 20.2881 35.4601 20.2881C35.1234 20.2881 34.8039 20.3583 34.5026 20.4986C34.2042 20.6354 33.9536 20.8125 33.7503 21.0299L33.2558 20.5091C33.5399 20.1969 33.8713 19.9602 34.2501 19.7989C34.6322 19.634 35.055 19.5516 35.5179 19.5516C35.8824 19.5516 36.2124 19.6165 36.507 19.7463C36.8049 19.8725 37.0398 20.0584 37.2119 20.3039C37.387 20.5494 37.475 20.844 37.475 21.1878C37.475 21.5104 37.3961 21.7893 37.2382 22.0242C37.0838 22.2592 36.8647 22.4539 36.5806 22.6082L36.5386 22.3188C36.7839 22.3644 36.9872 22.4627 37.1488 22.6135C37.31 22.7642 37.4291 22.9449 37.5066 23.1553C37.5836 23.3658 37.6223 23.5797 37.6223 23.7971C37.6223 24.1584 37.5276 24.4705 37.3382 24.7336C37.1522 24.9931 36.8977 25.1948 36.5754 25.3386C36.2559 25.4789 35.8967 25.549 35.4969 25.549ZM38.7778 25.3912V19.7095H39.5511V22.1768H42.755V19.7095H43.5283V25.3912H42.755V22.9186H39.5511V25.3912H38.7778ZM47.4037 25.549C46.8494 25.549 46.3692 25.4262 45.9622 25.1808C45.559 24.9353 45.2448 24.5898 45.0205 24.1444C44.7962 23.699 44.6838 23.1764 44.6838 22.5766C44.6838 21.9558 44.7943 21.4192 45.0152 20.9668C45.2362 20.5144 45.5466 20.1654 45.9464 19.9199C46.3496 19.6744 46.825 19.5516 47.3721 19.5516C47.9331 19.5516 48.4119 19.6814 48.8083 19.9409C49.2048 20.1969 49.5047 20.5652 49.7079 21.0457C49.9112 21.5262 50.0045 22.0997 49.9868 22.766H49.1976V22.4925C49.1838 21.7559 49.024 21.2001 48.7189 20.8248C48.4171 20.4495 47.9752 20.2618 47.3932 20.2618C46.7829 20.2618 46.3147 20.46 45.9885 20.8563C45.6657 21.2527 45.5045 21.8173 45.5045 22.5503C45.5045 23.2658 45.6657 23.8217 45.9885 24.218C46.3147 24.6108 46.7757 24.8072 47.3721 24.8072C47.7791 24.8072 48.133 24.7143 48.4348 24.5284C48.7399 24.339 48.98 24.0672 49.1556 23.713L49.8763 23.9918C49.652 24.4863 49.3206 24.8704 48.882 25.1439C48.4473 25.414 47.9542 25.549 47.4037 25.549ZM45.2309 22.766V22.1189H49.5712V22.766H45.2309ZM53.5111 25.549C52.9396 25.549 52.4556 25.421 52.0591 25.165C51.6626 24.909 51.3613 24.5565 51.1542 24.1075C50.9509 23.6551 50.8457 23.136 50.8386 22.5503C50.8457 21.9541 50.9543 21.4315 51.1647 20.9826C51.3752 20.5301 51.6784 20.1794 52.0749 19.9304C52.4713 19.6779 52.9515 19.5516 53.5163 19.5516C54.0917 19.5516 54.5915 19.6919 55.0157 19.9725C55.4437 20.2531 55.7364 20.6371 55.8943 21.1246L55.1367 21.3666C55.0033 21.0264 54.7914 20.7634 54.5001 20.5775C54.2127 20.3881 53.8827 20.2934 53.5111 20.2934C53.0936 20.2934 52.7482 20.3899 52.4747 20.5828C52.2011 20.7721 51.9979 21.037 51.8644 21.3771C51.731 21.7173 51.6626 22.1084 51.6592 22.5503C51.6664 23.2307 51.8243 23.7779 52.1327 24.1917C52.4412 24.6021 52.9008 24.8072 53.5111 24.8072C53.897 24.8072 54.2246 24.7196 54.4949 24.5442C54.7684 24.3653 54.9755 24.1058 55.1156 23.7656L55.8943 23.9971C55.6838 24.5021 55.3753 24.8879 54.9683 25.1545C54.5613 25.4175 54.0759 25.549 53.5111 25.549ZM58.5649 25.549C58.1368 25.549 57.7772 25.4719 57.4864 25.3175C57.1985 25.1632 56.9828 24.958 56.8393 24.702C56.6953 24.446 56.6236 24.1672 56.6236 23.8655C56.6236 23.5569 56.6848 23.2939 56.8077 23.0764C56.934 22.8555 57.1038 22.6748 57.318 22.5345C57.5352 22.3943 57.7862 22.2873 58.0703 22.2136C58.3578 22.1435 58.6753 22.0821 59.0226 22.0295C59.3731 21.9734 59.7151 21.9261 60.0484 21.8875C60.3851 21.8454 60.6797 21.805 60.9323 21.7665L60.6587 21.9348C60.6692 21.3737 60.5602 20.958 60.3325 20.688C60.1044 20.4179 59.7079 20.2829 59.1436 20.2829C58.7542 20.2829 58.4243 20.3706 58.1545 20.5459C57.8876 20.7213 57.7002 20.9984 57.5916 21.3771L56.8393 21.1562C56.9689 20.6477 57.23 20.2531 57.6232 19.9725C58.0158 19.6919 58.5261 19.5516 59.1541 19.5516C59.673 19.5516 60.113 19.6498 60.4746 19.8462C60.839 20.0391 61.0968 20.3197 61.2479 20.688C61.3177 20.8528 61.3636 21.037 61.3847 21.2404C61.4057 21.4438 61.4162 21.6507 61.4162 21.8612V25.3912H60.7271V23.9655L60.927 24.0497C60.7338 24.5372 60.4339 24.909 60.0274 25.165C59.6204 25.421 59.133 25.549 58.5649 25.549ZM58.6543 24.8809C59.0154 24.8809 59.331 24.816 59.6012 24.6862C59.871 24.5565 60.0886 24.3793 60.2536 24.1549C60.4181 23.9269 60.5253 23.6709 60.5745 23.3868C60.6166 23.2044 60.6391 23.0045 60.6429 22.7871C60.6462 22.5661 60.6482 22.4013 60.6482 22.2925L60.9428 22.4451C60.6797 22.4802 60.3937 22.5153 60.0853 22.5503C59.7801 22.5854 59.4783 22.6257 59.1804 22.6713C58.8858 22.7169 58.6189 22.7713 58.3807 22.8344C58.2191 22.88 58.0632 22.9449 57.9125 23.0291C57.7614 23.1097 57.637 23.2185 57.539 23.3552C57.4443 23.492 57.3969 23.6621 57.3969 23.8655C57.3969 24.0304 57.4371 24.1899 57.5179 24.3443C57.6021 24.4986 57.7351 24.6266 57.9178 24.7283C58.1033 24.83 58.3492 24.8809 58.6543 24.8809Z" fill="white"/>
</svg>
